<?xml version="1.0" encoding="utf-8"?>
<!-- Generator: Adobe Illustrator 18.0.0, SVG Export Plug-In . SVG Version: 6.00 Build 0)  -->
<!DOCTYPE svg PUBLIC "-//W3C//DTD SVG 1.0//EN" "http://www.w3.org/TR/2001/REC-SVG-20010904/DTD/svg10.dtd">
<svg version="1.0" id="Layer_1" xmlns="http://www.w3.org/2000/svg" xmlns:xlink="http://www.w3.org/1999/xlink" x="0px" y="0px"
	 viewBox="102.9 319.6 406.8 331" enable-background="new 102.9 319.6 406.8 331" xml:space="preserve">
<path fill="#FFFFFF" d="M509.7,359.4c-14.6,6.5-30.8,11.4-47.9,13c17-10.6,30.8-26.8,36.5-46.3c-16.2,9.7-34.1,16.2-52.8,20.3
	c-15.4-16.2-37.3-26.8-60.9-26.8c-46.3,0-83.6,37.3-83.6,83.6c0,6.5,0.8,13,2.4,18.7c-69.8-3.2-131.5-36.5-172.1-87.7
	c-7.3,12.2-11.4,26.8-11.4,42.2c0,29.2,14.6,54.4,37.3,69.8c-13.8-0.8-26.8-4.1-38.1-10.6v0.8c0,40.6,29.2,74.7,67.4,82
	c-7.3,1.6-14.6,3.2-21.9,3.2c-5.7,0-10.6-0.8-15.4-1.6c10.6,33.3,41.4,57.6,77.9,58.4c-28.4,22.7-64.9,35.7-103.9,35.7
	c-6.5,0-13.8-0.8-20.3-0.8c37.3,23.5,81.2,37.3,128.2,37.3c154.2,0,237.8-127.4,237.8-237.8c0-3.2,0-7.3,0-10.6
	C484.6,391,498.4,376.4,509.7,359.4z"/>
</svg>
